<svg xmlns="http://www.w3.org/2000/svg" width="123.428" height="89.99" viewBox="0 0 123.428 89.99">
  <g id="catpay" transform="translate(12652.507 8744.53)">
    <g id="catnofoto" transform="translate(-12652.005 -8744.53)">
      <g id="catnofoto-2" data-name="catnofoto" transform="translate(0 0)">
        <path id="Контур_1563" d="M94.313,41.675H19.324c-3.527,0-4.181-3.135-4.311-4.573-.523-6.271,2.874-14.371,9.276-21.556C33.172,5.748,45.452,0,57.21,0,68.445,0,79.942,5.356,88.695,14.5c6.924,7.185,10.843,15.808,10.713,22.6C99.146,40.107,97.448,41.675,94.313,41.675ZM57.21.915c-11.5,0-23.385,5.748-32.138,15.285-6.271,6.924-9.8,14.763-9.145,20.9.131,1.437.784,3.789,3.527,3.789h75.12c2.613,0,4.05-1.176,4.05-3.789.392-6.4-3.658-14.893-10.451-21.817C79.419,6.14,68.184.915,57.21.915Z" transform="translate(3.937)"/>
        <path id="Контур_1564" d="M76.038,17.1c-1.568-1.7-1.437-4.442-1.306-6.271V10.3a25.367,25.367,0,0,1,.261-3.135,41.263,41.263,0,0,0,.261-4.573,1.8,1.8,0,0,0-.523-1.568,2.681,2.681,0,0,0-2.09,0s-5.1,2.09-7.839,3.266a6.537,6.537,0,0,1-4.7.392l.131-.784a6.232,6.232,0,0,0,4.05-.392C67.024,2.333,71.989.243,72.119.243a4.7,4.7,0,0,1,3,.131,2.487,2.487,0,0,1,.914,2.221,43.356,43.356,0,0,1-.261,4.573c-.131,1.045-.131,1.96-.261,3v.523c-.131,1.829-.261,4.05,1.045,5.618Z" transform="translate(17.769 0.019)"/>
        <path id="Контур_1565" d="M22.253,16.827,21.6,16.3c1.306-1.568,1.176-4.181,1.176-5.879v-.392c-.131-1.829-.131-2.874-.261-3.919a32.167,32.167,0,0,1-.261-3.4A2.487,2.487,0,0,1,23.168.5a3.486,3.486,0,0,1,3-.131c.131,0,5.1,2.09,7.839,3.266a5.2,5.2,0,0,0,4.181.261l.392.784a6.851,6.851,0,0,1-4.834-.392c-2.744-1.176-7.839-3.266-7.839-3.266a2.885,2.885,0,0,0-2.09,0A1.68,1.68,0,0,0,23.3,2.586a27.586,27.586,0,0,0,.261,3.4c.131,1.306.261,2.613.261,3.919v.392C23.821,12.123,23.952,15.128,22.253,16.827Z" transform="translate(5.971 0.026)"/>
        <rect id="Прямоугольник_1009" width="0.915" height="10.843" transform="translate(60.624 0.392)"/>
        <rect id="Прямоугольник_1010" width="0.915" height="8.231" transform="translate(65.719 0.915)"/>
        <rect id="Прямоугольник_1011" width="0.915" height="8.231" transform="translate(55.79 0.915)"/>
        <path id="Контур_1566" d="M47.921,24.726l2.613-4.05L50.142,19.5l-4.181.131L45.7,20.806Z" transform="translate(13.356 5.975)" fill="#fff"/>
        <path id="Контур_1567" d="M54.416,29.131c-1.7,0-3.266-1.176-4.834-3.266-1.7,2.221-3.4,3.266-5.226,3.135-3.266-.392-5.226-4.834-5.356-4.834l.784-.392s1.829,4.05,4.7,4.442c1.437.131,3.135-1.045,4.573-3h0c-2.482-3.527-2.613-4.7-2.221-5.356.392-.784,1.829-.653,2.613-.653H50.5c1.045,0,1.829,0,2.09.653s0,1.829-2.613,5.356h0c1.437,1.96,3,3.135,4.442,3.135,1.7-.131,3.266-1.568,4.834-4.442l.784.392c-1.829,3.135-3.658,4.7-5.618,4.834Zm-5.487-9.145c-.523,0-1.045,0-1.045.261-.131.392-.131,1.176,1.96,4.181,2.09-3,2.221-3.919,2.09-4.181s-.653-.261-1.176-.261Z" transform="translate(11.303 5.882)"/>
        <g id="Сгруппировать_2164" transform="translate(70.925 21.098)">
          <path id="Контур_1594" d="M15,2.714S16.829-.03,18.789.1c2.09.131,3.4,1.7,4.573,1.829a5.078,5.078,0,0,0,1.96-.261A4.971,4.971,0,0,1,23.1,2.714c-1.045,0-2.744-1.7-4.311-1.568A8.968,8.968,0,0,0,15,2.714Z" transform="translate(-15 0.03)"/>
          <path id="Контур_1595" d="M23.231,2.874A10.239,10.239,0,0,1,21.4,2.221a6.261,6.261,0,0,0-2.613-.915h0a9.161,9.161,0,0,0-3.658,1.568H15V2.613h0C15.131,2.482,16.829,0,18.789,0h.131a7.083,7.083,0,0,1,3.135,1.176,4.829,4.829,0,0,0,1.437.653,3.425,3.425,0,0,0,1.96-.261c.131,0,.131,0,.131.131V1.96A8.753,8.753,0,0,1,23.231,2.874ZM18.789,1.045A6.478,6.478,0,0,1,21.4,2.09a4.844,4.844,0,0,0,1.829.523,2.752,2.752,0,0,0,1.7-.653,2.684,2.684,0,0,1-1.437,0,2.752,2.752,0,0,1-1.7-.653,11.983,11.983,0,0,0-3-1.176,4.79,4.79,0,0,0-3.266,1.96,10.564,10.564,0,0,1,3.266-1.045Z" transform="translate(-15)"/>
        </g>
        <g id="Сгруппировать_2165" transform="translate(40.611 20.856)">
          <path id="Контур_1596" d="M25.421,2.814S23.592.07,21.632.2c-2.09.131-3.4,1.7-4.573,1.829a5.078,5.078,0,0,1-1.96-.261,4.971,4.971,0,0,0,2.221,1.045c1.045,0,2.744-1.7,4.311-1.568A10.615,10.615,0,0,1,25.421,2.814Z" transform="translate(-14.969 0.191)"/>
          <path id="Контур_1597" d="M17.352,3.035A4.053,4.053,0,0,1,15,1.86V1.6h0a.128.128,0,0,1,.131-.131h0a10.085,10.085,0,0,0,1.96.261,4.829,4.829,0,0,0,1.437-.653A6.541,6.541,0,0,1,21.663-.1h.131c2.09.131,3.658,2.744,3.658,2.744V2.9H25.19a9.161,9.161,0,0,0-3.658-1.568,6.261,6.261,0,0,0-2.613.915A3.56,3.56,0,0,1,17.352,3.035Zm-1.7-.915a2.752,2.752,0,0,0,1.7.653,4.024,4.024,0,0,0,1.568-.653,6.478,6.478,0,0,1,2.613-1.045h0A7.594,7.594,0,0,1,24.8,2.252,4.79,4.79,0,0,0,21.532.292a6.594,6.594,0,0,0-3,1.176,4.024,4.024,0,0,1-1.568.653,2.226,2.226,0,0,1-1.306,0Z" transform="translate(-15 0.1)"/>
        </g>
        <rect id="Прямоугольник_1285" data-name="Прямоугольник 1285" width="108.042" height="52.649" transform="translate(7.191 36.841)" fill="#fff" stroke="#000" stroke-miterlimit="10" stroke-width="1"/>
        <path id="Контур_1710" data-name="Контур 1710" d="M7.687,38.3S.763,39.606.5,46.269,9.124,61.816,14.872,58.027c4.181-2.743,2.221-8.622.261-10.974-1.176-1.437-3.658-4.181-7.316-4.181Z" transform="translate(-0.496 11.736)" fill="#fff" stroke="#000" stroke-miterlimit="10" stroke-width="1"/>
        <path id="Контур_1711" data-name="Контур 1711" d="M90.966,38.3s6.924,1.306,7.185,7.969S89.529,61.816,83.781,58.027C79.6,55.284,81.56,49.4,83.519,47.053c1.176-1.437,3.658-4.181,7.316-4.181Z" transform="translate(24.267 11.736)" fill="#fff" stroke="#000" stroke-miterlimit="10" stroke-width="1"/>
        <g id="Сгруппировать_2304" data-name="Сгруппировать 2304" transform="translate(10.065 63.101)">
          <path id="Контур_1719" data-name="Контур 1719" d="M9.8,48.3s3.919,6.4,4.573,3.266" transform="translate(-7.71 -48.3)" fill="#fff" stroke="#000" stroke-linecap="round" stroke-miterlimit="10" stroke-width="1"/>
          <path id="Контур_1720" data-name="Контур 1720" d="M8.2,50.8c0,.523,2.221,4.311,4.05,3.527" transform="translate(-8.2 -47.534)" fill="#fff" stroke="#000" stroke-linecap="round" stroke-miterlimit="10" stroke-width="1"/>
        </g>
        <g id="Сгруппировать_2305" data-name="Сгруппировать 2305" transform="translate(105.827 63.101)">
          <path id="Контур_1721" data-name="Контур 1721" d="M86.073,48.3s-3.919,6.4-4.573,3.266" transform="translate(-81.5 -48.3)" fill="none" stroke="#000" stroke-linecap="round" stroke-miterlimit="10" stroke-width="1"/>
          <path id="Контур_1722" data-name="Контур 1722" d="M87.55,50.8c0,.523-2.221,4.311-4.05,3.527" transform="translate(-80.887 -47.534)" fill="none" stroke="#000" stroke-linecap="round" stroke-miterlimit="10" stroke-width="1"/>
        </g>
      </g>
    </g>
    <g id="Сгруппировать_2325" data-name="Сгруппировать 2325" transform="translate(-12618.591 -8696.482)">
      <g id="Сгруппировать_2324" data-name="Сгруппировать 2324" transform="translate(0 0)">
        <path id="Контур_1726" data-name="Контур 1726" d="M-12542.662-8481.527h8.511l8.51,25.53,29.629-5.673v-14.709h-36.1" transform="translate(12542.662 8481.527)" fill="none" stroke="#000" stroke-linecap="round" stroke-linejoin="round" stroke-width="1"/>
        <g id="Эллипс_105" data-name="Эллипс 105" transform="translate(19.898 26.3)" fill="none" stroke="#000" stroke-linecap="round" stroke-linejoin="round" stroke-width="1">
          <circle cx="3.569" cy="3.569" r="3.569" stroke="none"/>
          <circle cx="3.569" cy="3.569" r="3.069" fill="none"/>
        </g>
        <g id="Эллипс_106" data-name="Эллипс 106" transform="translate(36.122 26.3)" fill="none" stroke="#000" stroke-linecap="round" stroke-linejoin="round" stroke-width="1">
          <circle cx="3.569" cy="3.569" r="3.569" stroke="none"/>
          <circle cx="3.569" cy="3.569" r="3.069" fill="none"/>
        </g>
      </g>
    </g>
  </g>
</svg>
